<svg preserveAspectRatio="none" overflow="visible" style="display: block;" width="206.008" height="163" viewBox="0 0 206.008 163" fill="none" xmlns="http://www.w3.org/2000/svg">
<g id="Group">
<path id="Vector" d="M53.8316 148.311L58.6484 148.999L58.9775 155.249L53.0377 157.234L53.8316 148.311Z" fill="#ED9DA0"/>
<path id="Vector_2" d="M54.0425 162.599H66.5596C67.6361 162.597 68.6987 162.355 69.6696 161.889L71.9772 160.779C72.2314 160.656 72.4422 160.459 72.5815 160.214C72.7209 159.968 72.7821 159.686 72.757 159.404C72.7319 159.123 72.6218 158.856 72.4412 158.639C72.2607 158.422 72.0183 158.266 71.7465 158.19L66.9862 156.872L58.8411 152.584L58.8348 152.615C58.6825 153.388 58.4467 154.555 58.4173 154.626C57.5821 155.584 56.724 156.026 55.8674 155.938C54.3728 155.787 53.3782 154.058 53.3692 154.041L53.3619 154.027L53.3467 154.029C53.1949 154.035 53.0465 154.076 52.9131 154.149C52.7798 154.222 52.6649 154.325 52.5774 154.449C52.2362 154.965 52.4443 155.757 52.4787 155.877C52.0709 156.277 51.8862 158.512 51.8729 158.692C51.2824 159.319 51.0019 159.921 51.0375 160.483C51.0691 160.753 51.1573 161.014 51.2965 161.247C51.4356 161.481 51.6226 161.682 51.845 161.838C52.469 162.336 53.2441 162.605 54.0417 162.6L54.0425 162.599Z" fill="#090814"/>
<path id="Vector_3" d="M47.2733 149.923L52.5872 150.268V157.234H46.6815L47.2733 149.923Z" fill="#ED9DA0"/>
<path id="Vector_4" d="M24.9579 68.3519L25.8182 62.2422C23.8436 61.3518 22.2361 59.8066 21.2666 57.8673C20.2971 55.928 20.0249 53.7132 20.4961 51.5964C20.9673 49.4796 22.1529 47.5902 23.853 46.2469C25.5531 44.9036 27.6638 44.1886 29.829 44.2224C31.9942 44.2563 34.0816 45.0368 35.7391 46.4325C37.3965 47.8283 38.5228 49.7537 38.9278 51.8842C39.3328 54.0148 38.9919 56.22 37.9625 58.1281C36.9331 60.0361 35.2782 61.5303 33.2769 62.3587L33.9125 68.3519H24.9579Z" fill="#ED9DA0"/>
<g id="Group_2">
<path id="Vector_5" d="M82.4684 3.39236H206.008V59.9684C206.008 60.2488 205.953 60.5264 205.845 60.7854C205.738 61.0444 205.581 61.2798 205.383 61.4781C205.185 61.6763 204.95 61.8336 204.692 61.9408C204.433 62.0481 204.156 62.1033 203.876 62.1033H84.6001C84.3201 62.1033 84.0429 62.0481 83.7843 61.9408C83.5257 61.8336 83.2907 61.6763 83.0928 61.4781C82.8948 61.2798 82.7378 61.0444 82.6307 60.7854C82.5235 60.5264 82.4684 60.2488 82.4684 59.9684V3.39236Z" fill="#E6E6E6"/>
<path id="Vector_6" d="M86.0011 8.42664H202.475V57.411H86.0011V8.42664Z" fill="white"/>
<path id="Vector_7" d="M84.5475 0H203.824C204.389 0 204.931 0.224929 205.331 0.625304C205.731 1.02568 205.955 1.56871 205.955 2.13492V5.25628H82.4158V2.13492C82.4158 1.56871 82.6404 1.02568 83.0402 0.625304C83.4399 0.224929 83.9821 0 84.5475 0Z" fill="#987CFA"/>
<path id="Vector_8" d="M86.3159 1.58303C86.5083 1.58303 86.6963 1.64017 86.8563 1.74721C87.0162 1.85426 87.1409 2.0064 87.2145 2.18441C87.2882 2.36242 87.3074 2.5583 87.2699 2.74728C87.2324 2.93625 87.1397 3.10983 87.0037 3.24608C86.8676 3.38232 86.6943 3.4751 86.5056 3.51269C86.317 3.55028 86.1214 3.53099 85.9436 3.45725C85.7659 3.38352 85.614 3.25866 85.5071 3.09845C85.4002 2.93825 85.3432 2.7499 85.3432 2.55722C85.3432 2.29885 85.4457 2.05106 85.6281 1.86836C85.8105 1.68567 86.0579 1.58303 86.3159 1.58303Z" fill="white"/>
<path id="Vector_9" d="M90.0082 1.58303C90.2006 1.58303 90.3887 1.64017 90.5486 1.74721C90.7086 1.85426 90.8333 2.0064 90.9069 2.18441C90.9805 2.36242 90.9998 2.5583 90.9622 2.74728C90.9247 2.93625 90.8321 3.10983 90.696 3.24608C90.56 3.38232 90.3867 3.4751 90.198 3.51269C90.0093 3.55028 89.8137 3.53099 89.636 3.45725C89.4582 3.38352 89.3063 3.25866 89.1994 3.09845C89.0926 2.93825 89.0355 2.7499 89.0355 2.55722C89.0355 2.29885 89.138 2.05106 89.3204 1.86836C89.5028 1.68567 89.7502 1.58303 90.0082 1.58303Z" fill="white"/>
<path id="Vector_10" d="M93.7006 1.58303C93.8929 1.58303 94.081 1.64017 94.241 1.74721C94.4009 1.85426 94.5256 2.0064 94.5992 2.18441C94.6728 2.36242 94.6921 2.5583 94.6546 2.74728C94.617 2.93625 94.5244 3.10983 94.3884 3.24608C94.2523 3.38232 94.079 3.4751 93.8903 3.51269C93.7016 3.55028 93.5061 3.53099 93.3283 3.45725C93.1506 3.38352 92.9987 3.25866 92.8918 3.09845C92.7849 2.93825 92.7278 2.7499 92.7278 2.55722C92.7278 2.29885 92.8303 2.05106 93.0127 1.86836C93.1952 1.68567 93.4426 1.58303 93.7006 1.58303Z" fill="white"/>
<path id="Vector_11" d="M157.821 16.353H172.923C173.488 16.353 174.031 16.5779 174.43 16.9783C174.83 17.3787 175.055 17.9217 175.055 18.4879V47.3504C175.055 47.9166 174.83 48.4596 174.43 48.86C174.031 49.2604 173.488 49.4853 172.923 49.4853H157.821C157.542 49.4853 157.264 49.4301 157.006 49.3228C156.747 49.2155 156.512 49.0582 156.314 48.8599C156.116 48.6617 155.959 48.4263 155.852 48.1672C155.745 47.9082 155.69 47.6306 155.69 47.3502V18.4879C155.69 17.9217 155.914 17.3787 156.314 16.9783C156.714 16.5779 157.256 16.353 157.821 16.353Z" fill="#E6E6E6"/>
<path id="Vector_12" d="M115.553 16.3525H150.35C150.915 16.3525 151.457 16.5775 151.857 16.9778C152.257 17.3782 152.481 17.9212 152.481 18.4875V23.3371C152.481 23.9034 152.257 24.4464 151.857 24.8468C151.457 25.2471 150.915 25.4721 150.35 25.4721H115.553C114.988 25.4721 114.446 25.2471 114.046 24.8468C113.646 24.4464 113.422 23.9034 113.422 23.3371V18.4875C113.422 17.9212 113.646 17.3782 114.046 16.9778C114.446 16.5775 114.988 16.3525 115.553 16.3525Z" fill="#987CFA"/>
<path id="Vector_13" d="M115.553 28.0123H150.35C150.915 28.0123 151.457 28.2372 151.857 28.6376C152.257 29.038 152.481 29.581 152.481 30.1472V35.69C152.481 36.2562 152.257 36.7992 151.857 37.1996C151.457 37.6 150.915 37.8249 150.35 37.8249H115.553C114.988 37.8249 114.446 37.6 114.046 37.1996C113.646 36.7992 113.422 36.2562 113.422 35.69V30.1472C113.422 29.581 113.646 29.038 114.046 28.6376C114.446 28.2372 114.988 28.0123 115.553 28.0123Z" fill="#E6E6E6"/>
<path id="Vector_14" d="M115.553 40.3649H150.35C150.915 40.3649 151.457 40.5899 151.857 40.9902C152.257 41.3906 152.481 41.9336 152.481 42.4999V47.3495C152.481 47.9157 152.257 48.4588 151.857 48.8591C151.457 49.2595 150.915 49.4844 150.35 49.4844H115.553C114.988 49.4844 114.446 49.2595 114.046 48.8591C113.646 48.4588 113.422 47.9157 113.422 47.3495V42.4999C113.422 41.9336 113.646 41.3906 114.046 40.9902C114.446 40.5899 114.988 40.3649 115.553 40.3649Z" fill="#E6E6E6"/>
</g>
<path id="Vector_15" d="M58.9486 97.9653C58.9523 97.2936 58.8143 96.6287 58.5436 96.0142C58.2728 95.3997 57.8756 94.8494 57.3777 94.3993C56.8799 93.9493 56.2927 93.6097 55.6547 93.4028C55.0166 93.1958 54.3421 93.1262 53.6754 93.1985C53.4645 93.2225 53.2555 93.261 53.0499 93.3139L36.939 79.4832L37.9016 74.2855L29.9607 71.7081L27.5664 80.037C27.2832 81.0366 27.3294 82.101 27.698 83.0723C28.0667 84.0436 28.7382 84.8699 29.6129 85.4287L49.4322 97.9831C49.4324 98.1392 49.4406 98.2952 49.4567 98.4505C49.5291 99.1183 49.7415 99.7633 50.0801 100.343C50.4187 100.923 50.8758 101.425 51.4215 101.815C51.9672 102.206 52.5891 102.476 53.2465 102.609C53.9039 102.743 54.582 102.735 55.2363 102.587C55.4265 102.545 55.6138 102.491 55.7972 102.425C56.7145 102.093 57.5082 101.487 58.0716 100.69C58.635 99.8926 58.941 98.9415 58.9486 97.9646V97.9653Z" fill="#ED9DA0"/>
<path id="Vector_16" d="M38.4614 162.606C27.9469 162.606 19.4243 163.024 19.4243 162.343C19.4243 161.718 26.5797 157.129 35.8654 156.364V125.705H18.8951C17.4611 125.704 16.0862 125.133 15.0721 124.118C14.0581 123.102 13.4877 121.725 13.4863 120.289V119.422C13.4883 117.986 14.0588 116.609 15.0728 115.594C16.0867 114.579 17.4613 114.008 18.8951 114.006H39.6668C39.6668 114.604 61.0742 115.089 61.0742 115.089C61.4107 115.342 61.7172 115.633 61.9879 115.955C62.8012 116.927 63.2457 118.154 63.243 119.422V120.289C63.2426 121.725 62.6728 123.102 61.6588 124.118C60.6447 125.134 59.2696 125.704 57.8355 125.705H41.4894V156.403C50.5646 157.271 57.4973 161.728 57.4973 162.343C57.4973 162.649 55.7781 162.733 52.9314 162.733C49.441 162.733 44.2537 162.606 38.4614 162.606Z" fill="#E6E6E6"/>
<path id="Vector_17" d="M60.3547 148.881L70.9296 125.131C71.8125 123.13 71.9101 120.868 71.203 118.798C70.4959 116.727 69.036 114.999 67.1141 113.958L44.1769 101.64L33.7101 100.748L24.0552 99.8694L23.9856 99.9874C23.8966 100.138 21.8207 103.729 23.2239 107.667C24.2882 110.654 27.0568 112.986 31.4527 114.601C41.7132 118.369 53.566 121.589 58.1857 122.799C58.3899 122.851 58.5806 122.946 58.7455 123.077C58.9104 123.209 59.0456 123.374 59.1423 123.561C59.2394 123.746 59.2972 123.95 59.312 124.158C59.3267 124.367 59.2982 124.577 59.2282 124.774L49.403 146.88C49.3004 147.161 49.2635 147.461 49.295 147.758C49.3266 148.055 49.4258 148.34 49.5851 148.593C49.7444 148.845 49.9594 149.058 50.2136 149.214C50.4678 149.37 50.7544 149.465 51.0513 149.493L58.3922 150.028C58.4545 150.034 58.5165 150.037 58.5782 150.037C58.9542 150.037 59.322 149.928 59.6373 149.723C59.9526 149.517 60.2018 149.225 60.3547 148.881Z" fill="#090814"/>
<path id="Vector_18" d="M56.4607 150.181L67.0356 126.432C67.9185 124.43 68.0161 122.169 67.309 120.098C66.6019 118.027 65.142 116.3 63.2201 115.259L40.2828 102.94L29.8152 102.049L22.2531 101.392V101.288C22.1641 101.438 20.0882 105.029 21.4913 108.967C22.5557 111.954 23.161 114.287 27.5567 115.901C37.8173 119.669 49.67 122.889 54.2898 124.099C54.4939 124.151 54.6847 124.246 54.8496 124.378C55.0144 124.509 55.1497 124.674 55.2464 124.861C55.3435 125.047 55.4012 125.25 55.416 125.459C55.4308 125.667 55.4022 125.877 55.3322 126.074L45.509 148.18C45.4064 148.461 45.3694 148.761 45.401 149.058C45.4326 149.355 45.5318 149.64 45.691 149.893C45.8503 150.145 46.0653 150.358 46.3195 150.514C46.5737 150.67 46.8603 150.765 47.1572 150.793L54.4981 151.328C54.5605 151.334 54.6225 151.337 54.6842 151.337C55.0601 151.337 55.428 151.228 55.7433 151.023C56.0585 150.817 56.3077 150.525 56.4607 150.181Z" fill="#090814"/>
<path id="Vector_19" d="M36.5321 101.825C37.0392 101.466 44.3202 105.291 45.6182 102.258C39.561 87.0916 43.735 80.5425 40.0247 71.8452C39.3712 70.3453 38.3869 69.0131 37.1455 67.9489C35.9042 66.8846 34.4381 66.116 32.8576 65.7007L23.231 65.2142L23.1812 65.2382C21.0088 66.3039 19.2372 68.0423 18.129 70.1957C17.0208 72.3491 16.635 74.8028 17.0288 77.1931C17.0632 86.6584 22.7177 93.8775 20.7411 100.743C20.6582 101.03 20.634 101.331 20.67 101.627C20.706 101.924 20.8014 102.21 20.9506 102.469C21.0951 102.719 21.2893 102.937 21.5212 103.109C21.753 103.281 22.0176 103.404 22.2986 103.47L35.0096 101.772C35.3066 101.843 35.6152 101.849 35.915 101.791C36.2147 101.733 36.4986 101.612 36.7478 101.435L36.5321 101.825Z" fill="#E6E6E6"/>
<path id="Vector_20" d="M78.7864 77.8537L80.005 85.1007C80.0186 85.1815 80.0096 85.2645 79.9792 85.3406L70.4187 109.265C70.3807 109.36 70.3115 109.439 70.2227 109.488C70.1338 109.538 70.0306 109.556 69.9303 109.539C69.83 109.522 69.7386 109.47 69.6713 109.394C69.604 109.318 69.5648 109.22 69.5604 109.118L69.1554 99.5042C69.1528 99.4404 69.1638 99.3767 69.1878 99.3175L77.9347 77.7598C77.9712 77.6699 78.036 77.5944 78.1193 77.5447C78.2026 77.495 78.2997 77.4739 78.3961 77.4845C78.4924 77.4951 78.5827 77.5369 78.6531 77.6035C78.7236 77.6702 78.7703 77.758 78.7864 77.8537Z" fill="#3F3D56"/>
<path id="Vector_21" d="M78.1098 78.4099L79.2685 84.6359L70.7835 106.468L69.682 99.4447L78.1098 78.4099Z" fill="#987CFA"/>
<path id="Vector_22" d="M40.9897 109.154C41.1985 109.971 68.605 110.854 68.8894 110.607C69.1443 110.29 69.3653 109.948 69.5486 109.585C69.8357 109.072 70.1018 108.556 70.1018 108.556L69.6511 99.8754L42.6538 96.9861C42.6538 96.9861 41.4594 104.23 41.0843 107.558C40.9996 108.086 40.9679 108.62 40.9897 109.154Z" fill="#3F3D56"/>
<path id="Vector_23" opacity="0.1" d="M66.1193 100.794L66.1217 108.273L54.1807 107.423L54.709 99.9815L66.1193 100.794Z" fill="black"/>
<path id="Vector_24" opacity="0.1" d="M50.559 102.089L50.6313 102.08L50.0674 105.26L43.4336 104.787L43.6599 101.597L50.559 102.089Z" fill="black"/>
<path id="Vector_25" opacity="0.1" d="M40.9897 109.154C41.1984 109.971 68.605 110.854 68.8894 110.607C69.1443 110.29 69.3653 109.948 69.5486 109.585L41.0843 107.558C40.9996 108.086 40.9679 108.62 40.9897 109.154Z" fill="black"/>
<path id="Vector_26" d="M29.9856 96.1907L53.1044 100.512C53.1622 100.657 53.2275 100.799 53.2999 100.937C53.614 101.529 54.049 102.048 54.5765 102.46C55.104 102.873 55.7123 103.17 56.3618 103.331C57.1107 103.517 57.8934 103.517 58.6425 103.332C59.3916 103.148 60.0846 102.783 60.6618 102.271C61.2391 101.758 61.6832 101.113 61.956 100.39C62.2289 99.6672 62.3222 98.8888 62.2279 98.122C62.1337 97.3551 61.8547 96.6227 61.415 95.9878C60.9754 95.3529 60.3882 94.8346 59.7041 94.4774C59.02 94.1203 58.2594 93.9351 57.4879 93.9378C56.7165 93.9404 55.9572 94.1309 55.2755 94.4927C55.0885 94.5932 54.9087 94.7066 54.7374 94.8321L34.6571 87.962L33.6292 82.7771L25.3 83.329L26.163 92.0206C26.2677 93.035 26.6962 93.9885 27.3848 94.7397C28.0734 95.4909 28.9854 95.9998 29.9856 96.1907Z" fill="#ED9DA0"/>
<path id="Vector_27" d="M25.0172 87.2062L37.1197 83.2222L34.2964 75.1035C33.9215 74.0255 33.1782 73.1148 32.1977 72.5326C31.2173 71.9503 30.063 71.7339 28.9387 71.9215C27.8013 72.1114 26.7693 72.7023 26.0289 73.5875C25.2885 74.4728 24.8886 75.5939 24.9013 76.7486L25.0172 87.2062Z" fill="#E6E6E6"/>
<path id="Vector_28" d="M101.794 163H0.274184C0.238563 163.001 0.203101 162.995 0.169895 162.982C0.13669 162.969 0.106414 162.949 0.0808609 162.924C0.055308 162.899 0.0349952 162.87 0.021125 162.837C0.00725468 162.804 0.000110612 162.769 0.000110612 162.733C0.000110612 162.697 0.00725468 162.662 0.021125 162.629C0.0349952 162.596 0.055308 162.566 0.0808609 162.542C0.106414 162.517 0.13669 162.497 0.169895 162.484C0.203101 162.471 0.238563 162.465 0.274184 162.466H101.794C101.829 162.465 101.865 162.471 101.898 162.484C101.931 162.497 101.961 162.517 101.987 162.542C102.012 162.566 102.033 162.596 102.047 162.629C102.06 162.662 102.068 162.697 102.068 162.733C102.068 162.769 102.06 162.804 102.047 162.837C102.033 162.87 102.012 162.899 101.987 162.924C101.961 162.949 101.931 162.969 101.898 162.982C101.865 162.995 101.829 163.001 101.794 163Z" fill="#CBCBCB"/>
<path id="Vector_29" d="M27.1147 58.514C27.7576 58.1521 28.5119 58.0596 29.211 57.8248C31.7141 56.9892 33.3272 54.0872 32.7176 51.5157C32.6089 51.1868 32.5548 50.8424 32.5574 50.496C32.6312 49.7278 33.4004 49.2134 34.1449 49.0171C34.8895 48.8207 35.69 48.8247 36.3983 48.5237C37.4939 48.0588 38.1984 46.8993 38.3262 45.7155C38.4084 44.5174 38.1102 43.3239 37.4743 42.3058L37.2243 43.0929C36.8016 42.7536 36.4825 42.3023 36.3034 41.7903C35.9969 41.8504 35.7109 41.9884 35.4728 42.1909C35.2348 42.3935 35.0527 42.6539 34.9439 42.9472C34.5159 43.2158 34.4247 42.1624 33.9403 42.0202C33.7283 41.9995 33.5162 42.058 33.3446 42.1845C32.3889 42.6628 31.2536 42.3068 30.2087 42.0839C28.3988 41.7007 26.5243 41.7495 24.7366 42.2261C23.5487 42.5434 22.3797 43.0731 21.5479 43.9801C20.8995 44.7588 20.4095 45.657 20.1054 46.6241C19.2505 48.9611 18.7118 51.4794 19.0815 53.9406C19.3882 55.9546 20.2836 57.8326 21.6548 59.3375C22.3694 60.118 24.7038 62.8451 25.9302 62.3362C27.4721 61.6992 25.307 59.5353 27.1147 58.514Z" fill="#090814"/>
<path id="Vector_30" d="M47.6864 162.599H60.2034C61.2799 162.597 62.3425 162.355 63.3134 161.889L65.621 160.779C65.8752 160.656 66.086 160.459 66.2253 160.214C66.3647 159.968 66.4259 159.686 66.4008 159.404C66.3758 159.123 66.2656 158.856 66.085 158.639C65.9045 158.422 65.6621 158.266 65.3904 158.19L60.63 156.872L52.6501 152.813C52.508 153.433 52.3109 154.04 52.0613 154.625C51.2261 155.583 50.368 156.025 49.5114 155.938C48.0168 155.786 47.0222 154.057 47.0132 154.04L47.0059 154.026L46.9907 154.028C46.8389 154.034 46.6906 154.076 46.5572 154.148C46.4238 154.221 46.3089 154.324 46.2214 154.448C45.8802 154.964 46.0884 155.756 46.1227 155.876C45.715 156.276 45.5302 158.511 45.5169 158.691C44.9264 159.318 44.6459 159.921 44.6816 160.482C44.7131 160.752 44.8014 161.013 44.9405 161.246C45.0797 161.48 45.2666 161.681 45.489 161.837C46.1131 162.335 46.8882 162.604 47.6857 162.599L47.6864 162.599Z" fill="#090814"/>
</g>
</svg>
